<svg width="18" height="18" viewBox="0 0 18 18" fill="none" xmlns="http://www.w3.org/2000/svg">
<path d="M8.5948 10.297C9.75874 10.297 10.7023 9.35347 10.7023 8.18953C10.7023 7.02559 9.75874 6.08203 8.5948 6.08203C7.43086 6.08203 6.4873 7.02559 6.4873 8.18953C6.4873 9.35347 7.43086 10.297 8.5948 10.297Z" stroke="white" stroke-width="1.125" stroke-linecap="round" stroke-linejoin="round"/>
<path d="M12.4871 15.1501C12.4871 13.4026 10.7471 11.9775 8.59465 11.9775C6.44215 11.9775 4.70215 13.3951 4.70215 15.1501" stroke="white" stroke-width="1.125" stroke-linecap="round" stroke-linejoin="round"/>
<path d="M15.75 9.375C15.75 13.3125 12.5625 16.5 8.625 16.5C4.6875 16.5 1.5 13.3125 1.5 9.375C1.5 5.4375 4.6875 2.25 8.625 2.25C9.6075 2.25 10.545 2.44499 11.4 2.80499C11.3025 3.10499 11.25 3.42 11.25 3.75C11.25 4.3125 11.4075 4.845 11.685 5.295C11.835 5.55 12.03 5.78248 12.255 5.97748C12.78 6.45748 13.4775 6.75 14.25 6.75C14.58 6.75 14.895 6.69748 15.1875 6.59248C15.5475 7.44748 15.75 8.3925 15.75 9.375Z" stroke="white" stroke-width="1.125" stroke-linecap="round" stroke-linejoin="round"/>
<path d="M17.25 3.75C17.25 3.99 17.22 4.22249 17.16 4.44749C17.0925 4.74749 16.9725 5.04 16.815 5.295C16.455 5.9025 15.8775 6.37498 15.1875 6.59248C14.895 6.69748 14.58 6.75 14.25 6.75C13.4775 6.75 12.78 6.45748 12.255 5.97748C12.03 5.78248 11.835 5.55 11.685 5.295C11.4075 4.845 11.25 4.3125 11.25 3.75C11.25 3.42 11.3025 3.10499 11.4 2.80499C11.5425 2.36999 11.7825 1.98002 12.0975 1.65752C12.645 1.09502 13.41 0.75 14.25 0.75C15.135 0.75 15.9375 1.13251 16.4775 1.74751C16.9575 2.28001 17.25 2.985 17.25 3.75Z" stroke="white" stroke-width="1.125" stroke-miterlimit="10" stroke-linecap="round" stroke-linejoin="round"/>
<path d="M15.3668 3.73438H13.1318" stroke="white" stroke-width="1.125" stroke-miterlimit="10" stroke-linecap="round" stroke-linejoin="round"/>
<path d="M14.25 2.63965V4.88214" stroke="white" stroke-width="1.125" stroke-miterlimit="10" stroke-linecap="round" stroke-linejoin="round"/>
</svg>
