<svg width="512" height="512" viewBox="0 0 512 512" fill="none" xmlns="http://www.w3.org/2000/svg">
<path d="M319.997 485.334H191.997C76.1574 485.334 26.6641 435.84 26.6641 320V192C26.6641 76.1603 76.1574 26.667 191.997 26.667H319.997C435.837 26.667 485.331 76.1603 485.331 192V320C485.331 435.84 435.837 485.334 319.997 485.334ZM191.997 58.667C93.6507 58.667 58.6641 93.6537 58.6641 192V320C58.6641 418.347 93.6507 453.334 191.997 453.334H319.997C418.344 453.334 453.331 418.347 453.331 320V192C453.331 93.6537 418.344 58.667 319.997 58.667H191.997Z" fill="black"/>
<path d="M156.368 325.121C152.954 325.121 149.541 324.054 146.554 321.707C144.887 320.433 143.488 318.842 142.435 317.026C141.383 315.211 140.699 313.206 140.421 311.126C140.144 309.046 140.279 306.931 140.819 304.904C141.359 302.876 142.293 300.974 143.568 299.307L194.341 233.387C200.528 225.494 209.274 220.374 219.301 219.094C229.114 217.814 239.141 220.587 247.034 226.774L286.074 257.494C287.568 258.774 289.061 258.774 290.128 258.561C290.981 258.561 292.474 258.134 293.754 256.427L343.034 192.854C344.309 191.182 345.904 189.781 347.727 188.733C349.55 187.686 351.564 187.014 353.651 186.755C355.737 186.497 357.855 186.658 359.878 187.229C361.901 187.8 363.791 188.77 365.434 190.081C372.474 195.414 373.754 205.441 368.208 212.481L318.928 276.054C312.741 283.947 303.994 289.067 293.968 290.134C283.941 291.414 274.128 288.641 266.234 282.454L227.194 251.734C226.647 251.254 225.997 250.908 225.293 250.723C224.59 250.538 223.853 250.519 223.141 250.667C222.288 250.667 220.794 251.094 219.514 252.801L168.741 318.721C165.968 322.987 161.274 325.121 156.368 325.121Z" fill="black"/>
</svg>
