<svg width="50" height="50" viewBox="0 0 50 50" fill="none" xmlns="http://www.w3.org/2000/svg">
<g clip-path="url(#clip0_5545_6153)">
<path d="M43.8959 18.375C43.5204 18.0949 43.2273 17.7188 43.0477 17.2861C42.868 16.8535 42.8084 16.3804 42.8751 15.9167C43.7501 10.4167 42.7501 8.72916 42.0001 7.97916C41.2501 7.22916 39.5834 6.25 34.0834 7.125C33.62 7.18724 33.1484 7.12556 32.7165 6.94624C32.2847 6.76692 31.9081 6.47637 31.6251 6.10416C28.0001 1.27083 26.1042 0.708328 25.0001 0.708328C23.8959 0.708328 22.0001 1.27083 18.3751 6.10416C18.0921 6.47637 17.7155 6.76692 17.2836 6.94624C16.8518 7.12556 16.3802 7.18724 15.9167 7.125C10.4167 6.25 8.75008 7.25 8.00008 7.97916C7.25008 8.70833 6.25008 10.4167 7.12508 15.9167C7.19178 16.3804 7.13215 16.8535 6.95249 17.2861C6.77283 17.7188 6.47979 18.0949 6.10425 18.375C1.27092 22 0.729248 23.8958 0.729248 25C0.729248 26.1042 1.27092 28 6.10425 31.625C6.47979 31.9051 6.77283 32.2812 6.95249 32.7139C7.13215 33.1465 7.19178 33.6196 7.12508 34.0833C6.33341 39.625 7.25008 41.2708 8.00008 42.0208C8.75008 42.7708 10.3751 43.6667 15.9167 42.875C16.3804 42.8083 16.8535 42.8679 17.2862 43.0476C17.7188 43.2272 18.095 43.5203 18.3751 43.8958C22.0001 48.7292 23.8959 49.2917 25.0001 49.2917C26.1042 49.2917 28.0001 48.7292 31.6251 43.8958C31.9051 43.5203 32.2813 43.2272 32.714 43.0476C33.1466 42.8679 33.6197 42.8083 34.0834 42.875C39.6459 43.6667 41.2501 42.75 42.0001 42.0208C42.7501 41.2917 43.6667 39.625 42.8751 34.0833C42.8084 33.6196 42.868 33.1465 43.0477 32.7139C43.2273 32.2812 43.5204 31.9051 43.8959 31.625C48.7292 28 49.2709 26.1042 49.2709 25C49.2709 23.8958 48.7292 22 43.8959 18.375Z" fill="#27AF4D"/>
<path d="M23.9585 32.2917C23.6843 32.2933 23.4125 32.2407 23.1587 32.137C22.9048 32.0333 22.674 31.8806 22.4793 31.6875L18.3126 27.5208C17.9203 27.1285 17.7 26.5965 17.7 26.0417C17.7 25.4869 17.9203 24.9548 18.3126 24.5625C18.7049 24.1702 19.237 23.9498 19.7918 23.9498C20.3466 23.9498 20.8787 24.1702 21.271 24.5625L23.9585 27.2708L30.8126 20.3958C31.0063 20.2006 31.2367 20.0456 31.4906 19.9398C31.7445 19.834 32.0168 19.7796 32.2918 19.7796C32.5668 19.7796 32.8391 19.834 33.093 19.9398C33.3469 20.0456 33.5773 20.2006 33.771 20.3958C33.9662 20.5895 34.1212 20.8199 34.227 21.0738C34.3328 21.3277 34.3872 21.6 34.3872 21.875C34.3872 22.15 34.3328 22.4223 34.227 22.6762C34.1212 22.9301 33.9662 23.1605 33.771 23.3542L25.4376 31.6875C25.243 31.8806 25.0121 32.0333 24.7583 32.137C24.5045 32.2407 24.2327 32.2933 23.9585 32.2917Z" fill="white"/>
</g>
<defs>
<clipPath id="clip0_5545_6153">
<rect width="50" height="50" fill="white"/>
</clipPath>
</defs>
</svg>
